<?xml version="1.0" encoding="utf-8"?>
<!-- Generator: Adobe Illustrator 23.0.1, SVG Export Plug-In . SVG Version: 6.00 Build 0)  -->
<svg version="1.1" id="Layer_1" xmlns="http://www.w3.org/2000/svg" xmlns:xlink="http://www.w3.org/1999/xlink" x="0px" y="0px"
	 viewBox="0 0 64 64" style="enable-background:new 0 0 64 64;" xml:space="preserve">
<style type="text/css">
	.st0{fill:none;stroke:#848EA1;stroke-miterlimit:10;}
	.st1{fill:#FFFFFF;stroke:#848EA1;stroke-miterlimit:10;}
</style>
<g>
	<g>
		<polygon class="st0" points="1,13.6 1,20.2 1,62.9 6.4,62.9 18.8,44.3 44.9,44.3 57.2,62.9 63,62.9 63,13.6 32,1.1 		"/>
		<polyline class="st0" points="1,20.2 6.8,20.2 32,9.9 57,20.2 63,20.2 		"/>
		<line class="st0" x1="57.2" y1="62.9" x2="57" y2="20.2"/>
		<line class="st0" x1="6.4" y1="62.9" x2="6.8" y2="20.2"/>
	</g>
	<path class="st1" d="M20.6,45.5H18c-1,0-1.8,0.8-1.8,1.8v7.6c0,1,0.8,1.8,1.8,1.8h2.6c1,0,1.8-0.8,1.8-1.8v-7.6
		C22.4,46.3,21.6,45.5,20.6,45.5z"/>
	<path class="st1" d="M46.2,45.5h-2.6c-1,0-1.8,0.8-1.8,1.8v7.6c0,1,0.8,1.8,1.8,1.8h2.6c1,0,1.8-0.8,1.8-1.8v-7.6
		C48,46.3,47.2,45.5,46.2,45.5z"/>
	<path class="st1" d="M49.3,47.6H14.2c-1.1,0-2-0.9-2-2v-4.9c0-1.1,0.9-2,2-2h35.1c1.1,0,2,0.9,2,2v4.9
		C51.3,46.7,50.4,47.6,49.3,47.6z"/>
	<path class="st0" d="M22.5,46.3H20c-1,0-1.8-0.8-1.8-1.8v-2.6c0-1,0.8-1.8,1.8-1.8h2.6c1,0,1.8,0.8,1.8,1.8v2.6
		C24.4,45.5,23.6,46.3,22.5,46.3z"/>
	<path class="st0" d="M44.2,46.3h-2.6c-1,0-1.8-0.8-1.8-1.8v-2.6c0-1,0.8-1.8,1.8-1.8h2.6c1,0,1.8,0.8,1.8,1.8v2.6
		C46,45.5,45.2,46.3,44.2,46.3z"/>
	<polygon class="st0" points="16.6,38.7 22,26.6 42.1,26.6 47.6,38.7 	"/>
</g>
</svg>
