<?xml version="1.0" encoding="utf-8"?>
<!-- Generator: Adobe Illustrator 23.0.1, SVG Export Plug-In . SVG Version: 6.00 Build 0)  -->
<svg version="1.1" id="Layer_1" xmlns="http://www.w3.org/2000/svg" xmlns:xlink="http://www.w3.org/1999/xlink" x="0px" y="0px"
	 viewBox="0 0 128 21.8" style="enable-background:new 0 0 128 21.8;" xml:space="preserve">
<style type="text/css">
	.st0{fill:#2C2F3E;}
</style>
<g>
	<path class="st0" d="M16.7,7.4v6.9c-0.1,1.9-1,3.6-2.3,4.8c-1.3,1.2-3,2-5,2c-1.8,0-3.5-0.7-4.7-1.7l0,0c0,0,0,0-0.1-0.1
		c0,0-0.1,0-0.1-0.1c-0.2-0.2-0.3-0.5-0.3-0.8c0-0.6,0.5-1.2,1.2-1.2c0.3,0,0.5,0.1,0.7,0.2c0,0,0.1,0.1,0.1,0.1
		c0.9,0.7,2,1.2,3.2,1.2c2.7,0,4.8-2.1,5-4.7c0-0.1,0-0.2,0-0.3c0-0.1,0-0.2,0-0.3v-0.4c0,0,0,0,0,0c-1.3,1.2-3,1.9-4.9,1.9
		c-1.9,0-3.6-0.7-4.9-1.9c-0.7-0.7-1.3-1.5-1.7-2.4C2.4,10,2.1,9,2.1,7.9c0-4,3.3-7.3,7.3-7.3c1.9,0,3.7,0.7,5,2
		C15.7,3.8,16.6,5.5,16.7,7.4z M14.4,7.9c0-0.1,0-0.2,0-0.3c-0.1-2.6-2.3-4.7-5-4.7c-2.7,0-5,2.2-5,5c0,0.2,0,0.4,0,0.6c0,0,0,0,0,0
		c0,0,0,0,0,0c0.1,0.7,0.3,1.3,0.6,1.9c0.1,0.2,0.2,0.3,0.3,0.5c0.9,1.2,2.4,2,4,2c1.6,0,3.1-0.8,4-2c0.5-0.7,0.9-1.5,1-2.4
		c0,0,0,0,0,0V8.2C14.4,8.1,14.4,8,14.4,7.9z"/>
	<path class="st0" d="M35.8,7.4v6.6c0,0.6-0.5,1.2-1.2,1.2c-0.6,0-1.2-0.5-1.2-1.2v-0.8c-1.3,1.2-3,2-5,2c-4,0-7.3-3.3-7.3-7.3
		c0-4,3.3-7.3,7.3-7.3c1.9,0,3.7,0.7,5,2C34.8,3.8,35.7,5.5,35.8,7.4z M33.5,7.9c0-0.1,0-0.2,0-0.3c-0.1-2.6-2.3-4.7-5-4.7
		c-2.7,0-5,2.2-5,5c0,2.7,2.2,5,5,5c2.7,0,4.8-2.1,5-4.7C33.5,8.1,33.5,8,33.5,7.9z"/>
	<path class="st0" d="M52.9,3.3c0,0.6-0.5,1.2-1.2,1.2c-0.3,0-0.5-0.1-0.7-0.2c0,0-0.1-0.1-0.1-0.1c0,0,0,0,0,0
		c-0.9-0.7-2-1.2-3.2-1.2c-2.7,0-4.9,2.2-5,4.9c0,0,0,0.1,0,0.1s0,0.1,0,0.1v6.1c0,0.6-0.5,1.2-1.2,1.2c-0.6,0-1.2-0.5-1.2-1.2V7.7
		c0.1-2,0.9-3.8,2.3-5.1c1.3-1.2,3-2,5-2c1.8,0,3.5,0.7,4.8,1.8c0,0,0.1,0.1,0.1,0.1C52.7,2.7,52.9,3,52.9,3.3z"/>
	<path class="st0" d="M70.5,7.4v6.6c0,0.6-0.5,1.2-1.2,1.2c-0.6,0-1.2-0.5-1.2-1.2v-0.8c-1.3,1.2-3,2-5,2c-4,0-7.3-3.3-7.3-7.3
		c0-4,3.3-7.3,7.3-7.3c1.9,0,3.7,0.7,5,2C69.5,3.8,70.4,5.5,70.5,7.4z M68.2,7.9c0-0.1,0-0.2,0-0.3c-0.1-2.6-2.3-4.7-5-4.7
		c-2.7,0-5,2.2-5,5c0,2.7,2.2,5,5,5c2.7,0,4.8-2.1,5-4.7C68.2,8.1,68.2,8,68.2,7.9z"/>
	<path class="st0" d="M87.6,3.3c0,0.6-0.5,1.2-1.2,1.2c-0.3,0-0.5-0.1-0.7-0.2c0,0-0.1-0.1-0.1-0.1c0,0,0,0,0,0
		c-0.9-0.7-2-1.2-3.2-1.2c-2.7,0-4.9,2.2-5,4.9c0,0,0,0.1,0,0.1s0,0.1,0,0.1v6.1c0,0.6-0.5,1.2-1.2,1.2c-0.6,0-1.2-0.5-1.2-1.2V7.7
		c0.1-2,0.9-3.8,2.3-5.1c1.3-1.2,3-2,5-2c1.8,0,3.5,0.7,4.8,1.8c0,0,0.1,0.1,0.1,0.1C87.4,2.7,87.6,3,87.6,3.3z"/>
	<path class="st0" d="M106.7,7.4v6.9c-0.1,1.9-1,3.6-2.3,4.8c-1.3,1.2-3,2-5,2c-1.8,0-3.5-0.7-4.7-1.7l0,0c0,0,0,0-0.1-0.1
		c0,0-0.1,0-0.1-0.1c-0.2-0.2-0.3-0.5-0.3-0.8c0-0.6,0.5-1.2,1.2-1.2c0.3,0,0.5,0.1,0.7,0.2c0,0,0.1,0.1,0.1,0.1
		c0.9,0.7,2,1.2,3.2,1.2c2.7,0,4.8-2.1,5-4.7c0-0.1,0-0.2,0-0.3c0-0.1,0-0.2,0-0.3v-0.4c0,0,0,0,0,0c-1.3,1.2-3,1.9-4.9,1.9
		c-1.9,0-3.6-0.7-4.9-1.9c-0.7-0.7-1.3-1.5-1.7-2.4c-0.4-0.9-0.6-1.9-0.6-3c0-4,3.3-7.3,7.3-7.3c1.9,0,3.7,0.7,5,2
		C105.7,3.8,106.6,5.5,106.7,7.4z M104.4,7.9c0-0.1,0-0.2,0-0.3c-0.1-2.6-2.3-4.7-5-4.7c-2.7,0-5,2.2-5,5c0,0.2,0,0.4,0,0.6
		c0,0,0,0,0,0c0,0,0,0,0,0c0.1,0.7,0.3,1.3,0.6,1.9c0.1,0.2,0.2,0.3,0.3,0.5c0.9,1.2,2.4,2,4,2c1.6,0,3.1-0.8,4-2
		c0.5-0.7,0.9-1.5,1-2.4c0,0,0,0,0,0V8.2C104.4,8.1,104.4,8,104.4,7.9z"/>
	<path class="st0" d="M125.9,7.9c0,0.2,0,0.3,0,0.5c-0.1,1.9-1,3.6-2.3,4.9c-1.3,1.2-3.1,2-5,2c-4,0-7.3-3.3-7.3-7.3
		c0-4,3.3-7.3,7.3-7.3c1.9,0,3.7,0.7,5,2c1.3,1.2,2.2,2.9,2.3,4.8C125.9,7.6,125.9,7.8,125.9,7.9z M123.6,7.9c0-0.1,0-0.2,0-0.3
		c-0.1-2.6-2.3-4.7-5-4.7c-2.7,0-5,2.2-5,5c0,2.7,2.2,5,5,5c2.7,0,4.8-2.1,5-4.7C123.5,8.1,123.6,8,123.6,7.9z"/>
</g>
</svg>
